<svg xmlns="http://www.w3.org/2000/svg" width="55" height="55" viewBox="0 0 55 55" fill="none"><g clip-path="url(#clip0_806_9224)"><path d="M29.6114 50.391C42.5359 52.0263 48.1739 43.3434 48.9593 31.9776C49.5907 22.8391 43.9472 12.5615 34.4634 7.59514C22.723 1.44695 9.18846 9.42381 4.76522 19.6036C-0.349428 31.3745 14.736 48.5087 29.6114 50.391Z" fill="#E6EFFF"></path><path d="M15.888 28.6755L2.53034 23.8795C2.38085 23.8258 2.21587 23.9042 2.16594 24.055C0.820528 28.1168 1.33946 32.394 2.86081 36.5165C2.88904 36.593 2.94891 36.6537 3.02488 36.6833L13.2924 40.6847L17.3705 42.1823C21.5807 43.2335 25.7935 43.7461 30.0143 45.2718C30.7119 45.5239 31.2809 45.5854 31.8981 45.2883C32.3597 45.0661 32.6262 44.6421 32.7601 44.3594C32.8307 44.2103 33.0031 44.1205 33.1637 44.1585C33.6471 44.2728 34.6056 44.4072 35.0674 43.8322C35.3086 43.5319 35.451 43.1667 35.5287 42.9091C35.5795 42.7405 35.7611 42.6308 35.9347 42.6597C36.3242 42.7245 36.9733 42.747 37.3729 42.3026C37.6411 42.0044 37.7747 41.6947 37.8405 41.4793C37.887 41.3269 38.0317 41.2075 38.1909 41.2031C38.5843 41.1922 39.2858 41.102 39.6905 40.6302C40.4098 39.7918 39.9794 38.8556 39.8797 38.6659C39.8673 38.6422 39.8507 38.622 39.8313 38.6038L34.6604 33.7629C34.6352 33.7393 34.6059 33.7204 34.5739 33.7072L28.0644 31.0206C28.0466 31.0132 28.0281 31.0077 28.0091 31.0041L15.9309 28.6872C15.9163 28.6844 15.902 28.6805 15.888 28.6755Z" fill="#DBB393"></path><path d="M15.5614 37.4202C16.6661 35.4745 19.8489 34.3351 19.8489 34.3351L21.7983 35.076L17.3256 42.0264L14.3894 41.0578C14.3894 41.0578 14.8387 38.6932 15.5614 37.4202Z" fill="#D89464"></path><path d="M1.77597 30.497L11.8935 39.9829C11.8935 39.9829 3.76183 37.5659 2.97842 36.6367C2.19501 35.7076 1.77597 30.497 1.77597 30.497Z" fill="#D89464"></path><mask id="mask0_806_9224" style="mask-type:alpha" maskUnits="userSpaceOnUse" x="15" y="25" width="29" height="23"><path d="M37.09 27.9483L41.099 26.9011C41.2577 26.8596 41.4187 26.9596 41.4519 27.1201L43.6347 37.6586C43.6665 37.8122 43.5693 37.9628 43.4162 37.9971C42.1735 38.275 37.1276 39.4232 36.4411 39.8958C35.6686 40.4277 28.1489 46.1278 27.9314 46.2927C27.9246 46.2979 27.9242 46.2985 27.9177 46.3042C27.8082 46.4006 26.7061 47.3388 25.6519 47.0123C25.297 46.9024 24.6848 46.3709 24.4074 46.1184C24.3197 46.0385 24.193 46.0175 24.083 46.062C23.7019 46.2161 22.8099 46.5256 22.3202 46.274C21.8568 46.0358 21.5303 45.6791 21.3603 45.4615C21.2766 45.3543 21.1332 45.3034 21.0024 45.3409C20.5548 45.4693 19.5304 45.7012 18.8548 45.3727C18.2296 45.0687 18.0721 44.6594 17.8983 44.069C17.8508 43.9075 17.6749 43.8195 17.5129 43.8657C17.1705 43.9634 16.6005 44.0795 16.1732 43.9317C15.3435 43.6445 14.7848 42.9039 15.1675 41.8753C15.5502 40.8467 16.688 39.4586 17.7369 37.6976C20.5758 32.9317 26.1926 26.785 26.9259 25.9899C26.9779 25.9335 27.0486 25.9026 27.1253 25.9004L29.6235 25.8286C29.6534 25.8277 29.6832 25.8315 29.7119 25.8399L36.9374 27.9462C36.9871 27.9607 37.0399 27.9614 37.09 27.9483Z" fill="white"></path></mask><g mask="url(#mask0_806_9224)"><rect width="30.4846" height="26.1296" transform="matrix(-0.996398 -0.0847967 -0.0847967 0.996398 45.9684 24.8836)" fill="#B28171"></rect><path d="M13.7168 44.4321C13.7168 44.4321 19.4503 37.7979 22.384 37.055C24.925 36.4115 33.189 36.9089 35.3247 40.0973C37.731 43.6898 32.5621 49.5951 32.5621 49.5951L13.7168 44.4321Z" fill="#A85E48"></path></g><path d="M24.6415 46.0874L29.1592 40.9356" stroke="#542012" stroke-width="0.916667" stroke-linecap="round"></path><path d="M21.2193 45.2135L25.7863 39.4832" stroke="#542012" stroke-width="0.916667" stroke-linecap="round"></path><path d="M17.871 43.4718L22.0994 38.2954" stroke="#542012" stroke-width="0.916667" stroke-linecap="round"></path><path d="M40.336 38.5225L39.4145 27.3923L40.4513 27.0325L43.3961 38.0361L40.336 38.5225Z" fill="#A85E48"></path><path d="M32.4361 31.6944C32.5282 30.6115 28.1388 29.1472 26.9823 29.0488C25.8258 28.9503 21.1086 33.0483 21.0395 33.8604C20.9704 34.6726 32.3439 32.7773 32.4361 31.6944Z" fill="#A85E48"></path><rect x="39.5588" y="25.1591" width="6.01563" height="14.8958" rx="0.572917" transform="rotate(-12.7745 39.5588 25.1591)" fill="white"></rect><path d="M41.8876 35.4921L47.5415 33.242L47.6629 38.571L43.3884 39.6028C43.0763 39.6781 42.7632 39.4823 42.6944 39.1687L41.8876 35.4921Z" fill="#9DC3FF"></path><path d="M44.1492 22.9435C44.0792 22.6349 44.2726 22.3281 44.5812 22.2581L50.5839 20.8971C50.9109 20.823 51.2314 21.0443 51.2779 21.3764L53.6484 38.3003C53.6856 38.566 53.5335 38.8219 53.2824 38.9162L48.8178 40.5922C48.4926 40.7143 48.1345 40.5213 48.0577 40.1825L44.1492 22.9435Z" fill="#00307A"></path><path d="M26.3126 25.1298C26.9148 25.3869 30.805 28.6507 32.6596 30.2214C33.1833 30.6649 33.1907 31.4636 32.6041 31.8198C32.0745 32.1415 31.4091 32.4425 30.7742 32.4425C28.6451 32.4426 26.1949 29.7418 26.1949 29.7418C26.1949 29.7418 23.6007 33.0456 21.4275 34.0941C19.7413 34.9076 17.9955 32.4425 17.9955 32.4425L15.1451 28.8014C15.1451 28.8014 22.0492 25.1748 23.8571 24.9208C24.545 24.8242 25.517 24.7902 26.3126 25.1298Z" fill="#DBB393"></path><path d="M26.1132 29.9809L25.7308 29.7283C25.8031 29.6188 25.9189 29.5456 26.0488 29.5271C26.1787 29.5087 26.3103 29.5468 26.4102 29.6319L26.1132 29.9809ZM23.7417 32.5103L24.0216 32.8732L23.7417 32.5103ZM20.3967 34.8141C20.1523 34.8801 19.9007 34.7356 19.8346 34.4912C19.7686 34.2468 19.9132 33.9952 20.1576 33.9292L20.3967 34.8141ZM31.004 32.0951C31.2535 32.1382 31.4207 32.3754 31.3776 32.6248C31.3344 32.8742 31.0973 33.0415 30.8478 32.9983L31.004 32.0951ZM26.1132 29.9809C26.4956 30.2336 26.4955 30.2337 26.4955 30.2337C26.4954 30.2338 26.4954 30.2338 26.4954 30.2339C26.4953 30.234 26.4952 30.2342 26.4951 30.2344C26.4948 30.2347 26.4945 30.2351 26.4942 30.2357C26.4935 30.2367 26.4926 30.2381 26.4914 30.2398C26.4891 30.2432 26.4859 30.248 26.4818 30.2541C26.4736 30.2662 26.4617 30.2836 26.4464 30.3057C26.4157 30.3499 26.371 30.4133 26.3131 30.4922C26.1974 30.65 26.0288 30.8708 25.8143 31.1268C25.387 31.6369 24.7705 32.2956 24.0216 32.8732L23.4618 32.1474C24.1411 31.6234 24.7103 31.0173 25.1116 30.5382C25.3116 30.2995 25.468 30.0946 25.5738 29.9502C25.6267 29.8781 25.6668 29.8213 25.6933 29.7831C25.7065 29.7641 25.7163 29.7497 25.7226 29.7404C25.7258 29.7357 25.728 29.7324 25.7294 29.7303C25.7301 29.7293 25.7305 29.7286 25.7307 29.7283C25.7309 29.7281 25.7309 29.728 25.7309 29.728C25.7309 29.728 25.7309 29.728 25.7309 29.7281C25.7309 29.7281 25.7308 29.7281 25.7308 29.7282C25.7308 29.7282 25.7308 29.7283 26.1132 29.9809ZM24.0216 32.8732C23.0656 33.6107 22.1676 34.0934 21.5059 34.3926C21.1749 34.5423 20.9024 34.6464 20.7103 34.7137C20.6143 34.7473 20.5383 34.7717 20.4851 34.7881C20.4586 34.7963 20.4377 34.8025 20.4228 34.8068C20.4154 34.8089 20.4094 34.8106 20.4051 34.8118C20.4029 34.8124 20.4011 34.8129 20.3997 34.8133C20.399 34.8135 20.3984 34.8137 20.3979 34.8138C20.3976 34.8139 20.3974 34.8139 20.3972 34.814C20.3971 34.814 20.397 34.814 20.3969 34.8141C20.3968 34.8141 20.3967 34.8141 20.2771 34.3717C20.1576 33.9292 20.1575 33.9292 20.1574 33.9292C20.1573 33.9292 20.1572 33.9293 20.1572 33.9293C20.1571 33.9293 20.157 33.9293 20.1569 33.9294C20.1568 33.9294 20.1568 33.9294 20.1569 33.9294C20.1571 33.9293 20.1576 33.9292 20.1585 33.9289C20.1604 33.9284 20.1638 33.9274 20.1687 33.926C20.1784 33.9232 20.1941 33.9186 20.2154 33.912C20.2579 33.8989 20.3228 33.8781 20.4073 33.8485C20.5765 33.7893 20.8239 33.695 21.1282 33.5574C21.7373 33.282 22.5717 32.834 23.4618 32.1474L24.0216 32.8732ZM26.4102 29.6319C27.3539 30.435 27.9873 30.9541 28.6429 31.3243C29.2846 31.6867 29.9649 31.9154 31.004 32.0951L30.8478 32.9983C29.7383 32.8065 28.9505 32.5508 28.1921 32.1225C27.4476 31.702 26.749 31.124 25.8161 30.33L26.4102 29.6319Z" fill="#764123"></path><circle r="1.14583" transform="matrix(-0.996398 -0.0847967 -0.0847967 0.996398 44.9544 36.6156)" stroke="#3280FB" stroke-width="0.916667"></circle><circle cx="30.2295" cy="12.6253" r="10.1972" transform="rotate(30.4431 30.2295 12.6253)" fill="#FFCC60"></circle><path d="M39.1454 17.5802L37.4507 16.5842C32.6245 23.4381 26.0638 21.8149 23.3867 20.1465C31.2277 26.0088 37.1596 20.8783 39.1454 17.5802Z" fill="#B75327" stroke="#B75327" stroke-width="0.419207"></path><circle cx="29.0831" cy="11.6664" r="10.1972" transform="rotate(30.4431 29.0831 11.6664)" fill="#FFE0A0"></circle><circle cx="29.083" cy="11.6665" r="8.47719" transform="rotate(30.4431 29.083 11.6665)" fill="#FFCC60"></circle><path d="M29.0955 11.5313C27.8945 10.8254 27.3947 9.44708 27.9791 8.45261C28.5636 7.45815 30.011 7.22417 31.212 7.93C32.1711 8.49367 32.683 9.48624 32.5526 10.3697" stroke="#813B19" stroke-width="1.375" stroke-linecap="round"></path><path d="M28.9772 11.4618C30.1814 12.1695 30.7117 13.502 30.1617 14.4379C29.6116 15.3739 28.1894 15.5589 26.9852 14.8512C26.0359 14.2932 25.5054 13.347 25.5929 12.5128" stroke="#813B19" stroke-width="1.375" stroke-linecap="round"></path><line x1="31.9725" y1="6.89428" x2="26.5687" y2="16.089" stroke="#813B19" stroke-width="1.375" stroke-linecap="round"></line><path d="M21.7746 7.37117L34.3752 5.08637C31.9476 3.20363 28.8575 3.07859 27.6159 3.25142C24.9051 3.59633 22.5922 6.14163 21.7746 7.37117Z" fill="#F4A04F"></path><circle cx="37.3122" cy="12.9402" r="0.491431" transform="rotate(30.4431 37.3122 12.9402)" fill="white"></circle><path d="M36.8883 10.2184C37.1896 9.97216 37.6347 10.2337 37.5662 10.6168L37.5471 10.7237C37.5255 10.8442 37.5577 10.968 37.6351 11.0627L37.7038 11.1468C37.9501 11.4482 37.6885 11.8932 37.3054 11.8247L37.1985 11.8056C37.0781 11.7841 36.9542 11.8163 36.8595 11.8937L36.7754 11.9624C36.474 12.2086 36.029 11.9471 36.0975 11.564L36.1166 11.4571C36.1381 11.3366 36.106 11.2128 36.0286 11.118L35.9598 11.0339C35.7136 10.7326 35.9752 10.2875 36.3582 10.356L36.4652 10.3751C36.5856 10.3967 36.7094 10.3645 36.8042 10.2871L36.8883 10.2184Z" fill="white"></path><path d="M32.7105 4.29348C30.4298 3.07238 25.0958 2.03144 22.005 7.63648" stroke="#B75327" stroke-width="0.838414" stroke-linecap="round"></path></g><defs><clipPath id="clip0_806_9224"><rect width="55" height="55" fill="white"></rect></clipPath></defs></svg>